<mxfile host="app.diagrams.net" modified="2023-06-13T01:56:47.516Z" agent="Mozilla/5.0 (Macintosh; Intel Mac OS X 10_15_7) AppleWebKit/537.36 (KHTML, like Gecko) Chrome/113.0.0.0 Safari/537.36" version="21.3.2" etag="2ALDrz_bc1py9sgl2FK6" type="github">
  <diagram name="第 1 页" id="yzc87mZW5fgE6u6Pb6f1">
    <mxGraphModel>
      <root>
        <mxCell id="0" />
        <mxCell id="1" parent="0" />
      </root>
    </mxGraphModel>
  </diagram>
</mxfile>
